<svg width="41" height="41" viewBox="0 0 41 41" fill="none" xmlns="http://www.w3.org/2000/svg">
<g id="eva:arrow-back-fill">
<rect x="1" y="1" width="39" height="39" rx="10" stroke="black" stroke-width="2"/>
<path id="Vector" d="M29.8719 18.7506H12.5785L17.8715 12.3932C18.119 12.0954 18.2381 11.7115 18.2025 11.3259C18.167 10.9403 17.9797 10.5847 17.682 10.3372C17.3842 10.0897 17.0003 9.97062 16.6147 10.0062C16.2291 10.0417 15.8735 10.229 15.626 10.5268L8.33537 19.2755C8.28632 19.3451 8.24246 19.4182 8.20414 19.4942C8.20414 19.5671 8.20414 19.6109 8.10207 19.6838C8.03598 19.851 8.00137 20.0289 8 20.2087C8.00137 20.3885 8.03598 20.5664 8.10207 20.7336C8.10207 20.8065 8.10207 20.8503 8.20414 20.9232C8.24246 20.9992 8.28632 21.0723 8.33537 21.1419L15.626 29.8907C15.7631 30.0553 15.9348 30.1876 16.1288 30.2784C16.3229 30.3691 16.5345 30.4159 16.7487 30.4156C17.0894 30.4163 17.4196 30.2976 17.682 30.0802C17.8296 29.9578 17.9516 29.8075 18.0411 29.6378C18.1306 29.4682 18.1857 29.2825 18.2033 29.0916C18.2209 28.9006 18.2006 28.708 18.1437 28.5249C18.0868 28.3417 17.9943 28.1716 17.8715 28.0243L12.5785 21.6668H29.8719C30.2586 21.6668 30.6295 21.5132 30.9029 21.2398C31.1764 20.9663 31.33 20.5954 31.33 20.2087C31.33 19.822 31.1764 19.4511 30.9029 19.1777C30.6295 18.9042 30.2586 18.7506 29.8719 18.7506Z" fill="black"/>
</g>
</svg>
