<svg width="41" height="41" viewBox="0 0 41 41" fill="none" xmlns="http://www.w3.org/2000/svg">
<g id="eva:arrow-back-fill">
<rect x="1" y="1" width="39" height="39" rx="10" stroke="red" stroke-width="2"/>
<path id="Vector" d="M9.45808 18.7506H26.7514L21.4584 12.3932C21.2109 12.0954 21.0919 11.7115 21.1274 11.3259C21.163 10.9403 21.3502 10.5847 21.648 10.3372C21.9458 10.0897 22.3297 9.97062 22.7152 10.0062C23.1008 10.0417 23.4565 10.229 23.704 10.5268L30.9946 19.2755C31.0436 19.3451 31.0875 19.4182 31.1258 19.4942C31.1258 19.5671 31.1258 19.6109 31.2279 19.6838C31.294 19.851 31.3286 20.0289 31.33 20.2087C31.3286 20.3885 31.294 20.5664 31.2279 20.7336C31.2279 20.8065 31.2279 20.8503 31.1258 20.9232C31.0875 20.9992 31.0436 21.0723 30.9946 21.1419L23.704 29.8907C23.5669 30.0553 23.3952 30.1876 23.2011 30.2784C23.0071 30.3691 22.7954 30.4159 22.5812 30.4156C22.2405 30.4163 21.9103 30.2976 21.648 30.0802C21.5004 29.9578 21.3783 29.8075 21.2889 29.6378C21.1994 29.4682 21.1443 29.2825 21.1267 29.0916C21.1091 28.9006 21.1293 28.708 21.1862 28.5249C21.2432 28.3417 21.3357 28.1716 21.4584 28.0243L26.7514 21.6668H9.45808C9.07136 21.6668 8.70048 21.5132 8.42703 21.2398C8.15358 20.9663 7.99996 20.5954 7.99996 20.2087C7.99996 19.822 8.15358 19.4511 8.42703 19.1777C8.70048 18.9042 9.07136 18.7506 9.45808 18.7506Z" fill="red"/>
</g>
</svg>
