<svg width="17" height="17" viewBox="0 0 17 17" fill="none" xmlns="http://www.w3.org/2000/svg">
<g id="gg:search">
<path id="Vector" fill-rule="evenodd" clip-rule="evenodd" d="M12.6173 9.94078C13.4761 8.83352 13.8809 7.44065 13.7492 6.04553C13.6176 4.65042 12.9593 3.35787 11.9085 2.43083C10.8577 1.50379 9.49311 1.01191 8.09247 1.05525C6.69183 1.09859 5.3603 1.6739 4.36879 2.66414C3.37641 3.65506 2.79921 4.9871 2.75484 6.38881C2.71046 7.79051 3.20224 9.15639 4.12995 10.2081C5.05766 11.2598 6.35149 11.9182 7.74778 12.0491C9.14406 12.18 10.5377 11.7736 11.6447 10.9126L11.6744 10.9436L14.596 13.866C14.66 13.93 14.736 13.9807 14.8196 14.0154C14.9032 14.05 14.9928 14.0678 15.0833 14.0678C15.1738 14.0678 15.2634 14.05 15.347 14.0154C15.4307 13.9807 15.5066 13.93 15.5706 13.866C15.6346 13.802 15.6854 13.726 15.72 13.6424C15.7546 13.5588 15.7725 13.4692 15.7725 13.3787C15.7725 13.2882 15.7546 13.1986 15.72 13.115C15.6854 13.0314 15.6346 12.9554 15.5706 12.8914L12.6482 9.96971C12.6382 9.95979 12.6279 9.95014 12.6173 9.94078ZM11.1874 3.63872C11.5763 4.02131 11.8856 4.4771 12.0974 4.97981C12.3092 5.48252 12.4194 6.0222 12.4217 6.56771C12.4239 7.11323 12.3181 7.65378 12.1103 8.1582C11.9026 8.66262 11.597 9.12092 11.2113 9.50666C10.8256 9.8924 10.3673 10.1979 9.86285 10.4057C9.35843 10.6134 8.81787 10.7192 8.27236 10.717C7.72684 10.7148 7.18717 10.6046 6.68446 10.3927C6.18175 10.1809 5.72595 9.87163 5.34337 9.48277C4.5788 8.70564 4.15228 7.65788 4.15672 6.56771C4.16116 5.47754 4.5962 4.43329 5.36707 3.66242C6.13794 2.89155 7.18219 2.45651 8.27236 2.45207C9.36253 2.44763 10.4103 2.87415 11.1874 3.63872Z" fill="#1D1160"/>
</g>
</svg>
