<svg width="26" height="26" viewBox="0 0 26 26" fill="none" xmlns="http://www.w3.org/2000/svg">
<g id="fluent:share-16-filled">
<path id="Vector" d="M15.8925 3.33125C16.0293 3.26442 16.1821 3.23737 16.3335 3.25317C16.4849 3.26897 16.6288 3.32699 16.7489 3.42062L24.0614 9.10812C24.1556 9.18134 24.2326 9.27443 24.2868 9.38078C24.341 9.48712 24.3712 9.6041 24.375 9.7234C24.3789 9.8427 24.3565 9.96139 24.3093 10.071C24.2621 10.1807 24.1913 10.2786 24.102 10.3577L16.7895 16.8577C16.6724 16.9617 16.5277 17.0297 16.3729 17.0534C16.2181 17.0771 16.0597 17.0555 15.9169 16.9913C15.774 16.9271 15.6528 16.8229 15.5677 16.6914C15.4827 16.5599 15.4375 16.4066 15.4375 16.25V13.091C15.054 13.156 14.5535 13.2697 13.9685 13.4647C12.5499 13.9392 10.6307 14.8931 8.70025 16.8252C8.58213 16.9438 8.43027 17.023 8.26544 17.052C8.10061 17.081 7.93084 17.0584 7.77934 16.9873C7.62784 16.9162 7.502 16.8 7.41902 16.6546C7.33604 16.5093 7.29998 16.3419 7.31575 16.1753C7.54812 13.6224 8.29237 11.7601 9.30475 10.4179C10.1737 9.25934 11.3545 8.37217 12.7091 7.86012C13.5828 7.52898 14.504 7.34024 15.4375 7.30112V4.0625C15.4372 3.91022 15.4797 3.76092 15.5601 3.63163C15.6406 3.50233 15.7557 3.39825 15.8925 3.33125ZM3.25 8.9375C3.25 7.86006 3.67801 6.82674 4.43988 6.06488C5.20174 5.30301 6.23506 4.875 7.3125 4.875H10.5625C10.778 4.875 10.9846 4.9606 11.137 5.11297C11.2894 5.26535 11.375 5.47201 11.375 5.6875C11.375 5.90299 11.2894 6.10965 11.137 6.26202C10.9846 6.41439 10.778 6.5 10.5625 6.5H7.3125C6.66603 6.5 6.04605 6.7568 5.58893 7.21392C5.13181 7.67104 4.875 8.29103 4.875 8.9375V18.6875C4.875 19.334 5.13181 19.954 5.58893 20.4111C6.04605 20.8682 6.66603 21.125 7.3125 21.125H17.0625C17.709 21.125 18.3289 20.8682 18.7861 20.4111C19.2432 19.954 19.5 19.334 19.5 18.6875V17.0625C19.5 16.847 19.5856 16.6403 19.738 16.488C19.8903 16.3356 20.097 16.25 20.3125 16.25C20.528 16.25 20.7346 16.3356 20.887 16.488C21.0394 16.6403 21.125 16.847 21.125 17.0625V18.6875C21.125 19.7649 20.697 20.7983 19.9351 21.5601C19.1733 22.322 18.1399 22.75 17.0625 22.75H7.3125C6.23506 22.75 5.20174 22.322 4.43988 21.5601C3.67801 20.7983 3.25 19.7649 3.25 18.6875V8.9375Z" fill="white"/>
</g>
</svg>
