<svg width="192" height="201" viewBox="0 0 192 201" fill="none" xmlns="http://www.w3.org/2000/svg">
<g id="Group 13">
<path id="Vector" d="M30.2949 81.8174C30.2444 81.7893 30.1883 81.7612 30.1322 81.7331C26.6976 79.8436 25.7155 78.3759 25.6426 78.0947C25.9063 75.058 42.2205 66.8254 77.2789 64.6491C75.2305 67.4608 73.5189 71.088 72.8847 75.6823L72.5031 78.449C72.2954 79.8773 72.026 81.5306 71.4424 83.0658C70.5052 85.5176 67.8002 88.0819 63.5968 90.5056C48.8988 88.588 37.0967 85.5063 30.2949 81.8174ZM143.922 71.7571C144.943 71.386 145.645 70.4638 145.751 69.4122C155.488 71.819 162.638 74.8556 165.293 77.7854C165.753 78.2971 165.871 78.5952 165.893 78.6008C165.775 79.0113 164.686 80.5297 161.095 82.4135C155.645 85.2871 147.272 87.7107 136.879 89.4765C138.557 87.3846 139.724 84.556 139.853 80.5746C139.96 76.9813 140.207 75.8847 140.336 75.581C141.088 74.0852 142.929 72.117 143.922 71.7571ZM185.877 64.1655C179.014 56.5796 164.782 50.2195 145.572 46.1143C145.875 45.8951 146.234 45.642 146.655 45.3496C147.974 44.4386 149.612 43.297 151.251 41.7394C157.946 35.368 153.636 26.2693 150.033 21.9056L145.847 16.7883C145.044 15.8098 143.686 15.4837 142.536 16.001C141.38 16.5184 140.712 17.7443 140.903 18.9983L141.907 25.5439C142.216 27.5571 142.143 28.4513 140.134 30.1439C140.022 28.5075 139.78 26.753 139.314 24.8298C138.119 19.8699 135.594 17.6824 135.313 17.4463C134.499 16.7939 133.405 16.6196 132.445 17.0301C132.114 17.165 131.817 17.3675 131.564 17.6093L131.463 17.0301C130.627 12.1602 131.772 9.46102 131.777 9.3035C132.058 9.13483 132.311 8.92116 132.513 8.66809C133.478 7.48717 135.397 5.54145 135.408 5.52458C136.054 4.86104 136.34 3.92757 136.166 3.02778C135.992 2.12239 135.392 1.35765 134.55 0.980857C134.005 0.744711 132.372 0.232979 128.927 0.671585C122.433 1.57132 115.974 5.36717 116.182 11.8172C116.266 14.5895 117.136 17.1482 117.843 19.2232C118.129 20.078 118.533 21.2701 118.668 21.9955C118.309 22.153 117.663 22.3723 116.574 22.5691C106.529 24.3968 98.7787 29.2048 94.7436 36.0934C93.7896 37.7242 93.0544 39.4506 92.5437 41.2501C70.2078 41.4919 48.9886 44.4048 32.5622 49.4997C12.5441 55.7023 1.48272 64.5029 0.562343 74.9287C0.0740774 80.3778 2.22911 88.3631 15.0975 95.7578C15.3276 95.9996 15.597 96.2021 15.9113 96.3483L21.1641 98.862C21.3044 98.9351 21.456 98.9913 21.6075 99.0306C25.6201 100.802 30.1153 102.41 35.0371 103.844C34.2851 104.429 33.5667 105.02 32.8821 105.627C20.4963 115.822 13.3915 130.887 13.3915 146.959C13.3915 161.265 18.9473 174.716 29.0378 184.821C39.1283 194.932 52.5466 200.499 66.8181 200.499C92.0611 200.499 114.071 182.55 119.066 158.133C123.32 145.39 122.826 131.871 122.641 126.793C122.304 117.312 126.631 111.886 129.628 109.276C145.589 107.19 159.495 103.67 169.928 99.07C170.08 99.0307 170.231 98.9744 170.371 98.9013L172.021 98.114C172.044 98.1028 172.066 98.0972 172.089 98.0859L175.737 96.3426C176.034 96.2021 176.298 95.994 176.517 95.7578C185.384 90.6124 190.373 84.3761 190.968 77.6898C191.389 72.9212 189.677 68.3718 185.878 64.1655" fill="#FEFEFE"/>
<path id="Vector_2" d="M22.8465 77.8488C23.4133 71.3763 46.692 62.8287 84.3152 61.496C80.8245 64.1164 76.6828 68.6996 75.6614 76.0718L75.2798 78.8611C75.0272 80.5818 74.7242 82.3363 74.062 84.0739C72.614 87.881 68.5285 91.0189 64.1567 93.4144C49.0098 91.5024 36.349 88.3084 28.958 84.2933H28.9468C24.9005 82.0945 22.6781 79.7495 22.8465 77.8489V77.8488ZM167.373 75.9031C168.81 77.4889 168.715 78.5124 168.687 78.8555C168.529 80.683 166.24 82.8874 162.412 84.9062H162.401C154.353 89.1462 140.525 92.3516 124.06 94.0386C124.778 93.5719 125.569 93.1614 126.422 92.8128L126.692 92.7059C131.423 90.777 136.788 88.5952 137.04 80.7561C137.08 79.5134 137.147 75.6838 137.832 74.3173C138.713 72.5628 140.974 69.8411 142.967 69.1213C142.995 69.1044 139.639 68.4521 139.639 68.4521C139.459 68.4352 139.291 68.424 139.117 68.424C140.245 67.603 141.047 66.6245 141.637 65.5954C155.01 68.3846 164.006 72.1861 167.373 75.9031ZM183.8 66.0566C176.729 58.2456 161.138 51.9081 141.053 48.0729C141.143 45.7617 142.546 44.7832 145.049 43.0512C146.356 42.1458 147.832 41.1167 149.319 39.7052C155.801 33.5364 148.191 24.089 147.866 23.6898L143.679 18.5725L144.684 25.1181C145.369 29.6 143.73 31.1858 138.87 34.5879C138.247 35.0153 137.719 35.4933 137.254 35.9994C137.456 33.0078 137.596 29.6731 136.591 25.4949C135.581 21.3111 133.533 19.6184 133.533 19.6184L133 25.6861C132.994 25.7198 132.528 30.421 126.265 36.1063C126.804 35.499 127.309 34.8691 127.758 34.2112C130.828 29.735 129.941 24.6402 128.914 18.7469L128.701 17.5041C127.646 11.3577 129.284 7.52249 130.34 6.89268C131.367 5.63868 133.409 3.55241 133.409 3.55241C133.409 3.55241 132.326 3.06876 129.313 3.46242C125.395 4.00223 118.812 6.35283 118.986 11.7232C119.059 14.085 119.823 16.3288 120.49 18.3082C121.209 20.4226 121.888 22.4302 121.287 23.4592C120.805 24.2746 119.351 24.9213 117.078 25.3375C107.846 27.0189 100.775 31.3489 97.1668 37.5234C95.9714 39.5647 95.1745 41.7522 94.7761 44.0465C71.8789 44.114 50.1996 46.9763 33.3916 52.1892C14.5519 58.032 4.16963 65.9835 3.35592 75.1834C2.92382 80.0251 5.10688 87.0094 17.2008 93.7238L17.1166 93.8137L20.5511 95.4557C20.5541 95.459 20.5581 95.461 20.5624 95.4614L22.3695 96.3331L22.3976 96.3049C27.9703 98.8017 34.5084 100.961 41.7928 102.738C39.2 104.206 36.8093 105.893 34.6655 107.805C22.9475 117.443 16.1962 131.732 16.1962 146.961C16.1962 160.513 21.4604 173.256 31.0233 182.838C40.5862 192.42 53.2975 197.695 66.8225 197.695C90.7578 197.695 111.59 180.695 116.405 157.246C120.49 144.992 120.019 131.85 119.839 126.896C119.435 115.633 124.952 109.402 128.46 106.596C144.454 104.566 158.607 101.057 169.147 96.3499L169.164 96.3668L170.87 95.557L170.881 95.5457L174.529 93.8081L174.428 93.7125C182.908 88.9664 187.644 83.3879 188.172 77.444C188.52 73.4851 187.049 69.6555 183.8 66.0566" fill="#2D2925"/>
<path id="Vector_3" d="M18.1476 150.547C19.472 157.222 23.2826 165.219 30.8532 170.555C33.1429 172.164 35.6347 173.468 38.2779 174.475C36.6392 171.68 34.7367 168.863 32.8006 165.995C29.1752 160.647 25.432 155.108 23.0581 149.158C20.6 143.001 19.9266 136.562 20.9985 130.089C19.0679 135.347 18.0016 141.027 18.0016 146.96C18.0016 148.169 18.0578 149.366 18.1476 150.547Z" fill="#8B2231"/>
<path id="Vector_4" d="M26.3042 147.852C28.5435 153.459 32.1801 158.829 35.6932 164.031C38.415 168.046 41.0695 171.976 43.0898 175.947C45.3122 176.47 47.6188 176.801 49.9702 176.942C47.5402 173.472 45.4301 169.525 43.623 165.009C36.5967 147.509 37.6125 125.876 46.3224 113.358C50.8289 106.902 56.2108 102.51 63.1417 98.7259C69.1016 95.4587 72.8337 94.4859 76.6274 92.2197C80.7523 89.7566 82.9578 85.6346 80.2472 76.3898C79.4503 73.6905 79.31 71.5592 79.4727 69.9003C78.5299 71.728 77.7947 73.848 77.4524 76.3166L77.4748 76.2942C77.0483 78.909 76.8687 81.7826 75.7575 84.7124C72.1097 94.2834 54.4486 99.5975 52.1196 100.306C45.4188 102.331 40.0481 105.423 35.8672 109.157C23.7732 119.937 21.6126 136.11 26.3042 147.852" fill="#8B2231"/>
<path id="Vector_5" d="M99.9695 61.3623C100.149 61.9527 100.295 62.5375 100.368 63.1111C100.828 66.4571 99.8179 69.1563 95.7268 69.8142C91.5121 70.4946 90.0755 66.8226 89.75 63.8253C89.7162 62.7849 89.7948 61.9527 89.879 61.351C89.1719 61.3623 88.4704 61.3735 87.7689 61.396C86.4164 62.1664 84.6598 63.3698 82.9705 65.0962C82.1288 66.9069 81.113 69.4093 82.6731 75.2802C85.423 85.6329 84.2557 91.8805 75.9611 95.457C65.3824 100.018 58.6256 102.694 49.5565 114.121C45.2409 119.559 42.8838 128.568 42.4966 137.638C42.1205 146.439 43.9276 155.841 47.0198 163.545C49.0907 168.702 51.5095 173.184 54.3492 176.991C57.1833 176.884 60.051 176.518 62.9187 175.889C59.7704 172.188 57.9577 167.69 57.6323 162.64C56.5491 145.854 65.5732 138.791 79.4574 127.64L85.67 122.416C110.464 101.317 103.23 79.8576 105.957 61.5365C103.999 61.4579 102.001 61.4016 99.9695 61.3623Z" fill="#8B2231"/>
<path id="Vector_6" d="M109.902 61.7142C109.144 65.375 108.802 69.1933 108.561 73.1466C107.579 89.1058 108.056 107.174 87.8973 125.118L81.797 130.061C68.3057 140.903 60.5891 147.674 61.1222 162.418C61.2962 167.282 63.3446 171.539 66.7624 174.885C70.5336 173.749 74.2656 172.164 77.8518 170.117C95.3894 160.146 106.423 145.239 110.637 126.113C113.309 114.023 113.252 104.188 113.208 96.2812C113.185 92.283 113.701 84.444 113.701 84.444C114.263 79.4954 115.06 72.5561 120.789 63.463C120.975 63.1706 121.177 62.8726 121.368 62.5745C117.714 62.2146 113.892 61.9278 109.902 61.7142Z" fill="#8B2231"/>
<path id="Vector_7" d="M115.804 113.022V112.96C115.804 112.988 115.799 113.022 115.799 113.05C115.249 115.912 115.108 119.129 114.76 122.334C114.592 123.56 114.429 124.747 114.25 125.899C114.188 126.226 114.126 126.552 114.053 126.872C109.625 147.01 98.1656 162.688 79.7356 173.17C76.5705 174.969 73.3547 176.448 70.1278 177.595C75.5322 181.189 81.8345 182.297 86.167 181.644C102.717 179.153 110.781 168.334 114.665 156.761C118.649 144.884 118.223 132.209 118.032 126.962C117.404 109.434 130.934 102.967 130.934 102.967C120.412 102.394 116.96 106.988 115.804 113.022" fill="#8B2231"/>
<path id="Vector_8" d="M104.753 177.673C97.9845 183.342 90.6888 184.585 87.3721 185.096C80.8566 186.097 73.14 184.545 66.3158 179.152C66.2035 179.062 66.0969 178.967 65.9903 178.877C63.0664 179.658 60.1369 180.181 57.2187 180.423C63.897 187.61 72.691 191.693 84.4819 192.497C84.5324 192.497 84.5886 192.502 84.6334 192.502H84.6447C92.6699 189.348 99.6625 184.129 104.966 177.488C104.893 177.555 104.826 177.611 104.753 177.673ZM43.1633 189.745C43.2924 186.051 42.2541 182.418 40.5593 178.785C36.5131 177.615 32.5453 175.872 28.7291 173.55C26.5797 172.239 24.6436 170.237 22.9319 168.376C22.9263 168.365 22.915 168.365 22.9094 168.354C27.3093 177.402 34.4085 184.887 43.1633 189.751V189.745ZM76.913 194.782C70.3132 193.252 64.6675 190.907 59.712 187.145C57.1811 185.217 54.8745 183.046 52.7756 180.583C50.1043 180.549 47.4498 180.291 44.8233 179.796C46.2824 183.569 47.0176 187.415 46.5462 191.453V191.459C52.7251 194.287 59.583 195.879 66.8225 195.879C70.3076 195.879 73.7085 195.507 76.9859 194.81C76.9579 194.804 76.9354 194.788 76.913 194.782L76.913 194.782ZM133.63 74.6429C132.491 78.4556 128.747 78.0057 127.664 75.9475C125.941 72.6972 126.592 70.1835 128.388 68.4684C130.179 66.7532 133.114 65.8366 135.959 64.5489C135.971 64.5405 135.985 64.5329 135.998 64.5264C132.71 63.964 129.208 63.458 125.504 63.0193C125.453 63.0812 125.403 63.1374 125.352 63.1936C125.021 63.5704 124.696 63.9416 124.376 64.3296C118.489 73.2033 117.753 79.7771 117.175 84.8326L116.996 86.3902C116.67 89.0444 116.687 92.3904 116.704 96.2593C116.71 96.7879 116.715 97.339 116.715 97.9013C116.67 99.2509 116.62 100.584 116.558 101.883C116.592 101.894 116.614 101.9 116.642 101.905C116.687 101.365 116.71 101.157 116.704 101.433C118.371 96.1187 121.429 92.8852 125.739 91.1307C130.409 89.2356 135.016 87.4868 135.229 80.6937C135.325 77.8595 135.532 75.0197 136.178 73.5745C137.356 70.9483 139.466 70.251 139.466 70.251C137.199 70.0317 134.724 70.9821 133.63 74.6429Z" fill="#8B2231"/>
<path id="Vector_9" d="M139.28 47.7382C139.623 43.1944 143.916 42.3453 148.069 38.3864C153.406 33.3141 146.469 24.8396 146.469 24.8396C147.345 30.5361 144.713 32.7124 139.898 36.0696C138.371 37.1381 137.26 38.6339 137.108 40.5177C136.94 42.6321 136.8 44.9152 136.34 47.2264C137.333 47.3895 138.309 47.5638 139.28 47.7382ZM124.59 39.8198C123.305 40.7758 122.104 41.7599 120.982 42.7665C120.185 43.5313 119.405 44.2961 118.686 45.0271C123.372 45.432 127.929 45.9606 132.324 46.6017C135.13 41.4844 136.471 35.6754 134.804 25.7894C134.804 25.7894 134.417 32.4869 124.59 39.8198ZM98.3955 44.0537C103.755 44.1043 109.013 44.3236 114.143 44.6723C114.317 44.5036 114.474 44.3292 114.654 44.1606C118.099 40.4604 123.42 37.3337 126.27 33.1837C129.116 29.0279 127.971 23.9556 126.916 17.8092C125.103 7.21472 129.559 5.25218 129.559 5.25218C129.559 5.25218 120.625 6.48371 120.793 11.6628C121.023 18.6134 128.173 25.1534 117.403 27.116C105.584 29.2697 98.2383 35.6748 96.6221 44.048C97.2113 44.0537 97.8006 44.048 98.3955 44.0537Z" fill="#F9A11A"/>
<path id="Vector_10" d="M98.3651 46.8296C48.8557 46.3403 7.55101 59.1449 6.11435 75.4302C5.54194 81.914 11.3841 87.9761 21.7495 92.9528C28.1584 96.0288 36.2903 98.683 45.7017 100.775C47.5817 99.937 49.5516 99.1891 51.628 98.5593C53.2667 98.0644 56.2916 97.0691 59.6252 95.6183C45.7634 93.5882 34.5393 90.4729 27.6365 86.7333C22.5408 83.9665 19.7965 80.8624 20.0883 77.6009C21.0536 66.669 55.7136 58.1382 97.5121 58.5487C139.305 58.9649 172.41 68.1592 171.445 79.0967C171.181 82.0715 168.42 84.8719 163.695 87.3631C154.962 91.9574 139.541 95.4946 120.808 97.1422C120.162 98.0307 119.59 99.0148 119.124 100.134C127.643 96.8948 137.459 101.68 137.459 101.68C137.459 101.68 138.115 101.933 138.575 102.248C151.006 100.027 161.686 96.8666 169.689 93.0427C179.156 88.5272 184.897 83.0893 185.413 77.196C186.85 60.9162 147.88 47.3132 98.3651 46.8296Z" fill="#FEFEFE"/>
</g>
</svg>
