<svg width="140" height="140" viewBox="0 0 140 140" fill="none" xmlns="http://www.w3.org/2000/svg">
<g id="Group">
<g id="Group_2">
<mask id="mask0_189_165" style="mask-type:alpha" maskUnits="userSpaceOnUse" x="9" y="8" width="122" height="124">
<g id="b">
<path id="Vector" d="M9.69312 131.159H130.212V8.63H9.69312V131.159Z" fill="white"/>
</g>
</mask>
<g mask="url(#mask0_189_165)">
<path id="Vector_2" d="M127.325 20.6099C127.325 20.6099 126.353 21.0765 125.255 21.6047C126.775 16.2784 127.694 12.0084 127.705 11.9553L128.417 8.63271L125.573 10.4966C125.328 10.6559 101.481 26.3218 83.2688 40.6966L83.2548 40.6659C83.1124 40.2578 82.8694 39.7549 82.4476 39.2379C82.5789 39.1457 82.7102 39.0534 82.8387 38.9584C84.6515 37.6674 84.9783 37.4214 85.0649 37.3181C87.1543 35.5017 87.6515 33.2996 87.4448 31.9666L86.7912 27.7442L75.6403 36.0494C72.7045 35.2976 69.0928 34.8086 64.3051 36.0466L53.157 27.7442L52.5005 31.9638C52.291 33.2996 52.791 35.5016 54.7631 37.2035C54.9642 37.4242 55.2994 37.673 57.1541 38.9947C57.2659 39.0758 57.3804 39.1596 57.4949 39.2379C57.1402 39.6766 56.8664 40.1572 56.6849 40.6715L56.6765 40.6938C38.8273 26.6068 14.6233 10.6615 14.3719 10.4966L11.5339 8.62988L12.2378 11.9525C12.2909 12.1957 13.2965 16.9155 14.6457 21.5823C13.5591 21.0597 12.6205 20.6099 12.6205 20.6099L9.69312 19.207L10.6876 22.2977C10.7462 22.4849 12.1652 26.889 13.3216 29.8205C15.0283 34.5068 18.2686 41.9205 21.1792 47.0484C22.6876 49.6026 25.0452 51.9471 28.0005 53.8334C29.6876 54.9065 31.4977 55.7924 33.3916 56.4658C33.7351 57.2483 34.3972 58.6986 35.1876 60.0958H29.4642V70.0023L21.1345 73.9928L29.4698 78.1929L29.4809 85.9951L36.9307 90.5501L37.4139 90.4914C37.4139 90.4914 41.9028 89.9353 44.481 89.6559L63.7352 100.775C67.6235 118.612 68.5928 123.684 68.6012 123.732L70.0062 131.16L71.347 123.721C71.3582 123.667 72.3303 118.316 76.2102 100.778L95.4644 89.6559C98.0427 89.9353 102.529 90.4914 102.531 90.4914L103.015 90.5501L110.464 85.9951L110.473 78.1957L118.811 73.9928L110.481 70.0023V60.0959H104.747C105.545 58.6846 106.207 57.2455 106.551 56.4658C108.889 55.6219 115.381 52.8469 118.769 47.0428C120.4 44.2455 123.914 37.0609 126.615 29.84C126.71 29.5941 128.16 25.8327 129.263 22.2865L130.213 19.2266L127.325 20.6098L127.325 20.6099Z" fill="#FEFEFE"/>
</g>
</g>
<path id="Vector_3" d="M40.2558 62.6926H32.0406V71.6126L27.1021 74.0326L32.0406 76.6119V84.5399L37.496 87.8793C39.5072 87.6166 42.0714 87.3064 45.0407 87.0046L66.1274 99.1634L69.971 116.852C69.9961 116.811 73.8537 99.1634 73.8537 99.1634L94.904 87.0046C97.8761 87.3064 100.44 87.6166 102.449 87.8793L107.898 84.5399V76.612L112.848 74.0885L107.898 71.6126V62.6927H99.689C99.689 62.6927 100.96 61.4631 102.572 58.6909C103.245 57.5312 103.879 56.0865 104.658 54.3735C110.644 52.5514 115.061 48.7286 116.954 45.0007C122.08 35.6113 125.938 24.1316 125.938 24.1316C125.938 24.1316 123.725 25.1935 121.055 26.5125C123.223 19.8979 124.524 14.2838 124.524 14.2838C124.524 14.2838 100.879 29.9329 82.4599 44.6347L80.8649 43.6762C80.8705 43.5253 80.9152 42.1811 80.9152 42.0694C80.9152 42.0694 81.0939 40.5072 78.3453 39.5739C78.1749 39.5152 78.0157 39.4621 77.8565 39.409C79.1889 38.4086 81.2615 36.8772 82.7727 35.8405C85.1833 34.1861 84.8984 32.3669 84.8984 32.3669L76.1609 38.8725C69.4095 36.6816 63.7838 38.8725 63.7838 38.8725L55.0491 32.3669C55.0491 32.3669 54.7614 34.1861 57.172 35.8405C58.686 36.8772 60.7559 38.4086 62.0911 39.409C61.9318 39.4621 61.7698 39.5152 61.6022 39.5739C58.8508 40.5072 59.0352 42.0694 59.0352 42.0694C59.0352 42.1811 59.0743 43.5253 59.0827 43.6762L57.4849 44.6347C39.0686 29.9329 15.4261 14.2838 15.4261 14.2838C15.4261 14.2838 16.7222 19.8979 18.8898 26.5125C16.0322 25.0985 14.0071 24.1316 14.0071 24.1316C14.0071 24.1316 17.8646 35.6113 22.9931 45.0008C24.8842 48.7286 29.3004 52.5514 35.2865 54.3735C35.2865 54.3735 36.2977 56.6929 37.172 58.3584C38.2502 60.4179 40.2558 62.6926 40.2558 62.6926" fill="#1C1060"/>
<path id="Vector_4" d="M79.8887 49.3243C79.8105 49.5842 79.7183 49.8329 79.6317 50.0816C87.911 44.6715 102.375 35.2318 118.582 24.6994C118.582 24.6994 118.601 25.0515 120.037 20.8849C102.914 31.2301 87.749 42.9557 79.8887 49.3243V49.3243ZM60.0562 49.3252C52.1958 42.9566 37.0337 31.2309 19.9108 20.8829C21.3438 25.0523 21.3633 24.6974 21.3633 24.6974C37.5701 35.2298 52.0338 44.6696 60.3132 50.0797C60.2238 49.8338 60.1372 49.5823 60.0562 49.3252ZM45.0234 63.1537C45.0178 63.1509 40.9564 60.2474 38.6631 54.9323L40.286 55.4157C45.5849 56.8186 55.7162 58.2158 55.7162 58.2158C50.8363 58.3248 46.7106 58.7076 44.3559 58.9703C43.867 58.3639 43.3056 57.5898 43.0905 57.0142C43.0905 57.0142 43.272 58.8725 43.6883 60.035C44.2162 61.734 45.0179 63.148 45.0234 63.1536V63.1537ZM69.9649 57.6877C68.5487 57.1455 64.9816 55.3654 62.842 50.7098C64.5962 52.2217 66.842 52.7051 68.6381 50.9669C66.4453 50.0224 66.1743 46.1101 65.7498 45.0845C64.8922 43.0055 63.5347 41.9547 62.4621 41.5132C62.956 41.3459 63.4524 41.1857 63.9509 41.0326C64.976 41.5886 66.6883 42.8685 67.2247 45.4199C67.2247 45.4199 67.4481 42.508 66.0068 40.4653C68.8028 39.7918 71.6241 39.884 73.9258 40.4625C72.4817 42.5052 72.7023 45.4199 72.7023 45.4199C73.2414 42.8657 74.9593 41.583 75.9873 41.0297C76.4481 41.1723 76.9454 41.3343 77.4817 41.5132C76.4063 41.9547 75.0487 43.0055 74.1939 45.0845C73.7721 46.1101 73.4984 50.0224 71.3113 50.9669C71.8141 53.9458 71.1939 56.7236 69.9649 57.6877V57.6877ZM96.2449 60.0339C96.6611 58.8714 96.8426 57.0131 96.8426 57.0131C96.6275 57.5887 96.0661 58.3628 95.5745 58.9692C93.2225 58.7093 89.094 58.3265 84.2169 58.2175C84.2169 58.2175 94.3454 56.8174 99.6443 55.4146L101.267 54.934C98.9767 60.2491 94.9153 63.1525 94.9097 63.1525C94.9153 63.1497 95.7141 61.7357 96.2449 60.0339V60.0339ZM57.3562 88.3104L47.0377 82.3526C46.2947 82.4224 45.5656 82.4923 44.8645 82.565L59.1914 90.8394C58.4931 90.0681 57.8785 89.2186 57.3562 88.3104ZM82.5862 88.3104L92.9046 82.3526C93.6449 82.4224 94.3739 82.4923 95.075 82.565L80.751 90.8394C81.4493 90.0681 82.0638 89.2186 82.5862 88.3104ZM65.3836 89.7015C60.8277 88.7123 58.9422 86.4655 58.9422 86.4655C59.8752 88.3657 61.2858 89.9922 63.0149 91.1854C63.0149 91.1854 64.9339 90.6293 65.3836 89.7015V89.7015ZM62.5945 84.8333C62.2656 84.5131 61.9415 84.1879 61.6224 83.858C60.1699 84.3638 59.343 84.9283 58.9073 85.3111C59.9157 86.2724 61.8375 87.5495 65.2872 88.2677C64.8682 87.0828 63.7956 86.0209 62.5944 84.8332" fill="#008CA8"/>
<path id="Vector_5" d="M69.8816 95.5859C68.3705 95.611 67.2923 96.1951 66.9319 96.3292C66.5548 95.6166 66.1135 94.8928 65.6973 94.2529C66.9962 94.4122 68.1386 94.1691 68.1386 94.1691C67.5939 93.9902 66.1917 93.5152 64.3481 92.2996C64.3453 92.2996 64.3425 92.2968 64.3425 92.2968C64.5017 92.2297 64.6638 92.157 64.8286 92.076C64.8286 92.076 64.8314 92.0732 64.8314 92.0704C65.3174 91.8273 65.8062 91.5115 66.1917 91.1147C66.6526 90.6396 66.9682 90.05 66.9682 89.3178C66.9682 87.0543 65.4459 86.2914 63.7336 84.6008C63.39 84.2626 63.0213 83.9133 62.647 83.5444C64.2168 83.1225 66.3509 82.7927 69.2224 82.7424L69.9096 92.3471H70.0101L70.7197 82.7424C73.5912 82.7927 75.7224 83.1225 77.2951 83.5444C76.9208 83.9133 76.552 84.2626 76.2085 84.6008C74.4962 86.2914 72.9739 87.0543 72.9739 89.3178C72.9739 90.05 73.2895 90.6396 73.7504 91.1147C74.1358 91.5115 74.6219 91.8273 75.1079 92.0704L75.1135 92.076C75.2783 92.157 75.4403 92.2297 75.5967 92.2968C75.5967 92.2968 75.5967 92.2996 75.5939 92.2996C73.7504 93.5152 72.3481 93.9902 71.8034 94.1691C71.8034 94.1691 72.9431 94.4122 74.2448 94.2529C73.8286 94.8928 73.3872 95.6166 73.0074 96.3292C72.6498 96.1951 71.5716 95.611 70.0604 95.5859H69.8816V95.5859Z" fill="#008CA8"/>
<path id="Vector_6" d="M76.9283 91.1848C78.6574 89.9916 80.0652 88.3652 81.001 86.4678C81.001 86.4678 79.1155 88.7117 74.5596 89.701C75.0065 90.6288 76.9283 91.1848 76.9283 91.1848ZM74.6546 88.268C78.1043 87.5498 80.0261 86.2727 81.0345 85.3114C80.5987 84.9258 79.7719 84.3613 78.3194 83.8583C77.9954 84.1936 77.6657 84.5206 77.3473 84.8335C76.1434 86.0212 75.0736 87.0831 74.6545 88.268" fill="#008CA8"/>
<path id="Vector_7" d="M66.8833 51.2279C66.8833 51.2279 65.2129 50.1241 64.9448 47.7767C64.9448 47.7767 62.78 51.404 66.8833 51.2279ZM73.18 51.2279C73.18 51.2279 74.8504 50.1241 75.1186 47.7767C75.1186 47.7767 77.2862 51.404 73.18 51.2279H73.18ZM71.9523 99.0982C71.6535 98.788 71.2177 98.4276 69.8853 98.4248C68.6283 98.422 68.1898 98.7433 67.8238 99.0423L69.9719 107.538L71.9523 99.0982V99.0982ZM86.1515 61.7799V64.8901H85.1069V61.7799H84.2409V60.8912H87.0147V61.7799H86.1515ZM81.2892 61.7799V64.8901H80.2418V61.7799H79.3758V60.8912H82.1552V61.7799H81.2892Z" fill="#FEFEFE"/>
<g id="Group_3">
<mask id="mask1_189_165" style="mask-type:alpha" maskUnits="userSpaceOnUse" x="9" y="8" width="122" height="124">
<g id="d">
<path id="Vector_8" d="M9.69226 131.159H130.212V8.62891H9.69226V131.159Z" fill="white"/>
</g>
</mask>
<g mask="url(#mask1_189_165)">
<path id="Vector_9" d="M64.8768 62.5735H65.9913V61.7827H64.8768V62.5735ZM66.5975 63.4734H66.9718V61.3216L66.536 60.8912H63.8907V64.8902H64.8768V63.4734H65.617L66.1869 64.8902H67.1645L66.5975 63.4734V63.4734Z" fill="#FEFEFE"/>
</g>
</g>
<g id="Group_4">
<mask id="mask2_189_165" style="mask-type:alpha" maskUnits="userSpaceOnUse" x="9" y="8" width="122" height="124">
<g id="f">
<path id="Vector_10" d="M9.69226 131.159H130.212V8.62891H9.69226V131.159Z" fill="white"/>
</g>
</mask>
<g mask="url(#mask2_189_165)">
<path id="Vector_11" d="M92.1708 61.7811V60.8925H89.2378V64.8914H92.1708V63.9915H90.2601V63.3348H92.1708V62.4378H90.2601V61.7811H92.1708Z" fill="#FEFEFE"/>
</g>
</g>
<g id="Group_5">
<mask id="mask3_189_165" style="mask-type:alpha" maskUnits="userSpaceOnUse" x="9" y="8" width="122" height="124">
<g id="h">
<path id="Vector_12" d="M9.69226 131.159H130.212V8.62891H9.69226V131.159Z" fill="white"/>
</g>
</mask>
<g mask="url(#mask3_189_165)">
<path id="Vector_13" d="M70.5098 63.9926V60.8907H69.4846V64.8897H71.9846V63.9926H70.5098Z" fill="#FEFEFE"/>
</g>
</g>
<g id="Group_6">
<mask id="mask4_189_165" style="mask-type:alpha" maskUnits="userSpaceOnUse" x="9" y="8" width="122" height="124">
<g id="j">
<path id="Vector_14" d="M9.69226 131.159H130.212V8.62891H9.69226V131.159Z" fill="white"/>
</g>
</mask>
<g mask="url(#mask4_189_165)">
<path id="Vector_15" d="M74.9104 63.9932H76.0445V61.7828H74.9104V63.9932ZM76.5836 60.8914H73.9299V64.4404L74.3769 64.8903H77.0249V61.3357L76.5836 60.8914V60.8914Z" fill="#FEFEFE"/>
</g>
</g>
<g id="Group_7">
<mask id="mask5_189_165" style="mask-type:alpha" maskUnits="userSpaceOnUse" x="9" y="8" width="122" height="124">
<g id="l">
<path id="Vector_16" d="M9.69226 131.159H130.212V8.62891H9.69226V131.159Z" fill="white"/>
</g>
</mask>
<g mask="url(#mask5_189_165)">
<path id="Vector_17" d="M59.3852 62.6882H60.5221V61.78H59.3852V62.6882V62.6882ZM61.5333 64.8903L61.5277 61.3385L61.0863 60.8914H58.3796V64.8903H59.3852V63.5908H60.5193V64.8903H61.5333V64.8903Z" fill="#FEFEFE"/>
</g>
</g>
<g id="Group_8">
<mask id="mask6_189_165" style="mask-type:alpha" maskUnits="userSpaceOnUse" x="9" y="8" width="122" height="124">
<g id="n">
<path id="Vector_18" d="M9.69226 131.159H130.212V8.62891H9.69226V131.159Z" fill="white"/>
</g>
</mask>
<g mask="url(#mask6_189_165)">
<path id="Vector_19" d="M55.1879 60.8914V62.6882H54.0594V60.8914H53.0538V64.8903H54.0594V63.5908H55.1879V64.8903H56.1907V60.8914H55.1879Z" fill="#FEFEFE"/>
</g>
</g>
<g id="Group_9">
<mask id="mask7_189_165" style="mask-type:alpha" maskUnits="userSpaceOnUse" x="9" y="8" width="122" height="124">
<g id="p">
<path id="Vector_20" d="M9.69226 131.159H130.212V8.62891H9.69226V131.159Z" fill="white"/>
</g>
</mask>
<g mask="url(#mask7_189_165)">
<path id="Vector_21" d="M115.174 32.5047C117.118 27.9329 118.582 24.6969 118.582 24.6969C102.375 35.2293 87.9085 44.6719 79.632 50.082C79.3163 50.9622 78.956 51.7643 78.5621 52.4992L111.207 34.7068L85.7241 53.1196L86.9001 52.9072L100.367 51.605C100.367 51.605 109.467 50.7247 114.532 43.9146C116.914 40.2566 120.973 29.5677 120.973 29.5677L115.174 32.5047Z" fill="#FEFEFE"/>
</g>
</g>
<g id="Group_10">
<mask id="mask8_189_165" style="mask-type:alpha" maskUnits="userSpaceOnUse" x="9" y="8" width="122" height="124">
<g id="r">
<path id="Vector_22" d="M9.69226 131.159H130.212V8.62891H9.69226V131.159Z" fill="white"/>
</g>
</mask>
<g mask="url(#mask8_189_165)">
<path id="Vector_23" d="M37.1734 75.1126L40.3131 73.7601V80.8888C41.2097 80.7659 42.1371 80.6513 43.0756 80.5395L43.0728 64.8904H40.3159C40.3103 64.8709 40.3103 70.4989 40.3131 70.5269L37.1734 71.8515L37.1762 64.8904H34.3997V72.9916C34.3997 72.9916 32.1147 74.0871 32.1259 74.1094L34.3997 75.2468V81.8166C35.2907 81.6545 36.2321 81.5008 37.1734 81.3499V75.1126H37.1734Z" fill="#FEFEFE"/>
</g>
</g>
<g id="Group_11">
<mask id="mask9_189_165" style="mask-type:alpha" maskUnits="userSpaceOnUse" x="9" y="8" width="122" height="124">
<g id="t">
<path id="Vector_24" d="M9.69226 131.159H130.212V8.62891H9.69226V131.159Z" fill="white"/>
</g>
</mask>
<g mask="url(#mask9_189_165)">
<path id="Vector_25" d="M58.7011 69.8686H61.8296C61.8296 70.637 61.824 71.6263 61.824 72.3221C60.7793 72.3361 59.7458 72.3556 58.7039 72.3724L58.7011 69.8686ZM58.7039 75.0663C59.3938 75.0467 60.067 75.0272 60.7597 75.0104C61.2681 76.335 61.7932 77.8384 62.3016 79.1658C63.215 79.1406 64.1368 79.1183 65.0642 79.1015C64.5558 77.7685 64.0391 76.2735 63.5335 74.9545C63.8826 74.9489 64.2346 74.9405 64.5893 74.9377L64.5865 68.5384L63.3631 67.3312H54.8882L55.9357 68.5803V79.4397C56.8491 79.3893 57.7681 79.3418 58.7039 79.2999V75.0663V75.0663Z" fill="#FEFEFE"/>
</g>
</g>
<g id="Group_12">
<mask id="mask10_189_165" style="mask-type:alpha" maskUnits="userSpaceOnUse" x="9" y="8" width="122" height="124">
<g id="v">
<path id="Vector_26" d="M9.69226 131.159H130.212V8.62891H9.69226V131.159Z" fill="white"/>
</g>
</mask>
<g mask="url(#mask10_189_165)">
<path id="Vector_27" d="M69.4945 69.8686H72.6649V79.0652C73.6174 79.0736 74.6062 79.0875 75.5476 79.1071V68.5859L74.285 67.3312H65.6229L66.6649 68.5803V79.0764C67.6034 79.0652 68.542 79.0568 69.4945 79.054V69.8686V69.8686Z" fill="#FEFEFE"/>
</g>
</g>
<g id="Group_13">
<mask id="mask11_189_165" style="mask-type:alpha" maskUnits="userSpaceOnUse" x="9" y="8" width="122" height="124">
<g id="x">
<path id="Vector_28" d="M9.69226 131.159H130.212V8.62891H9.69226V131.159Z" fill="white"/>
</g>
</mask>
<g mask="url(#mask11_189_165)">
<path id="Vector_29" d="M85.8932 76.8623C84.1026 76.7673 82.3401 76.6863 80.5495 76.6248C80.5412 75.9681 80.5412 75.3142 80.5412 74.6603C82.3256 74.7101 84.1096 74.7725 85.8931 74.8475V72.0866C84.0999 72.0391 82.3233 71.9971 80.5356 71.9664C80.5328 71.4354 80.5328 70.5356 80.5328 69.8677H85.8931V67.3331H76.5942L77.625 68.5739V79.1622C80.4546 79.2432 83.2227 79.369 85.8931 79.5367V76.8623L85.8932 76.8623Z" fill="#FEFEFE"/>
</g>
</g>
<g id="Group_14">
<mask id="mask12_189_165" style="mask-type:alpha" maskUnits="userSpaceOnUse" x="9" y="8" width="122" height="124">
<g id="z">
<path id="Vector_30" d="M9.69226 131.159H130.212V8.62891H9.69226V131.159Z" fill="white"/>
</g>
</mask>
<g mask="url(#mask12_189_165)">
<path id="Vector_31" d="M92.8585 69.8686H95.2412V67.3312H87.4283V69.8685H89.8585V79.8253C90.8557 79.9063 91.8948 79.9902 92.8585 80.0824V69.8685V69.8686Z" fill="#FEFEFE"/>
</g>
</g>
<g id="Group_15">
<mask id="mask13_189_165" style="mask-type:alpha" maskUnits="userSpaceOnUse" x="9" y="8" width="122" height="124">
<g id="B">
<path id="Vector_32" d="M9.69226 131.159H130.212V8.62891H9.69226V131.159Z" fill="white"/>
</g>
</mask>
<g mask="url(#mask13_189_165)">
<path id="Vector_33" d="M51.1092 76.9981C50.0449 77.0652 49.003 77.1323 47.9387 77.2105V69.8694H51.112L51.1092 76.9981ZM53.8885 68.5811L52.6371 67.332H44.1343L45.1399 68.542L45.1427 78.876L46.2404 80.1838C48.679 79.9379 51.2544 79.7283 53.8857 79.5579L53.8885 68.5811V68.5811Z" fill="#FEFEFE"/>
</g>
</g>
<g id="Group_16">
<mask id="mask14_189_165" style="mask-type:alpha" maskUnits="userSpaceOnUse" x="9" y="8" width="122" height="124">
<g id="D">
<path id="Vector_34" d="M9.69226 131.159H130.212V8.62891H9.69226V131.159Z" fill="white"/>
</g>
</mask>
<g mask="url(#mask14_189_165)">
<path id="Vector_35" d="M105.252 75.1914C106.107 74.8086 106.968 74.4174 107.825 74.015C105.068 72.7379 102.308 71.5754 99.5485 70.5023L99.5429 67.3641H102.47V68.5043H105.252V64.891H95.7273L96.786 66.1178V72.587L102.47 75.0573V78.6734C102.47 78.6734 101.152 78.5057 99.5457 78.2989V77.1392L96.786 76.8094V80.501C99.8055 80.8531 102.641 81.2667 105.252 81.7277C105.25 79.7604 105.252 76.6558 105.252 75.1914" fill="#FEFEFE"/>
</g>
</g>
<g id="Group_17">
<mask id="mask15_189_165" style="mask-type:alpha" maskUnits="userSpaceOnUse" x="9" y="8" width="122" height="124">
<g id="F">
<path id="Vector_36" d="M9.69226 131.159H130.212V8.62891H9.69226V131.159Z" fill="white"/>
</g>
</mask>
<g mask="url(#mask15_189_165)">
<path id="Vector_37" d="M49.8028 63.648V63.9918H48.9089V61.7813H49.8028V62.1111H50.8056V60.8927H47.9229V64.4417L48.3726 64.8888H50.8056V63.648H49.8028Z" fill="#FEFEFE"/>
</g>
</g>
<g id="Group_18">
<mask id="mask16_189_165" style="mask-type:alpha" maskUnits="userSpaceOnUse" x="9" y="8" width="122" height="124">
<g id="H">
<path id="Vector_38" d="M9.69226 131.159H130.212V8.62891H9.69226V131.159Z" fill="white"/>
</g>
</mask>
<g mask="url(#mask16_189_165)">
<path id="Vector_39" d="M24.7722 32.5047C22.8281 27.9329 21.3643 24.6969 21.3643 24.6969C37.5711 35.2293 52.0376 44.6719 60.3142 50.082C60.6298 50.9622 60.9902 51.7643 61.3841 52.4992L28.7387 34.7068L54.222 53.1196L53.046 52.9072L39.5795 51.605C39.5795 51.605 30.4789 50.7247 25.4147 43.9146C23.032 40.2566 18.9733 29.5677 18.9733 29.5677L24.7722 32.5047Z" fill="#FEFEFE"/>
</g>
</g>
<g id="Group_19">
<mask id="mask17_189_165" style="mask-type:alpha" maskUnits="userSpaceOnUse" x="9" y="8" width="122" height="124">
<g id="J">
<path id="Vector_40" d="M9.69226 131.159H130.212V8.62891H9.69226V131.159Z" fill="white"/>
</g>
</mask>
<g mask="url(#mask17_189_165)">
<path id="Vector_41" d="M40.2559 62.6926H32.0407V71.6126L27.1022 74.0326L32.0407 76.6119V84.5398L37.4961 87.8793C39.5072 87.6166 42.0715 87.3064 45.0408 87.0046L66.1275 99.1634L69.971 116.852C69.9962 116.811 73.8537 99.1634 73.8537 99.1634L94.9041 87.0046C97.8762 87.3064 100.44 87.6166 102.449 87.8793L107.899 84.5399V76.6119L112.848 74.0885L107.899 71.6126V62.6926H99.6891C99.6891 62.6926 100.96 61.463 102.572 58.6909C103.245 57.5312 103.879 56.0865 104.658 54.3735C110.644 52.5514 115.061 48.7286 116.954 45.0007C122.08 35.6113 125.938 24.1316 125.938 24.1316C125.938 24.1316 123.725 25.1935 121.055 26.5125C123.223 19.8979 124.524 14.2838 124.524 14.2838C124.524 14.2838 100.879 29.9329 82.4599 44.6347L80.865 43.6762C80.8706 43.5253 80.9152 42.1811 80.9152 42.0693C80.9152 42.0693 81.094 40.5072 78.3454 39.5739C78.175 39.5152 78.0158 39.4621 77.8566 39.409C79.189 38.4086 81.2616 36.8772 82.7728 35.8405C85.1834 34.1861 84.8985 32.3669 84.8985 32.3669L76.161 38.8724C69.4096 36.6816 63.7839 38.8724 63.7839 38.8724L55.0492 32.3669C55.0492 32.3669 54.7615 34.1861 57.1721 35.8405C58.6861 36.8772 60.7559 38.4086 62.0912 39.409C61.9319 39.4621 61.7699 39.5152 61.6023 39.5739C58.8509 40.5072 59.0353 42.0693 59.0353 42.0693C59.0353 42.1811 59.0744 43.5253 59.0827 43.6762L57.485 44.6347C39.0687 29.9329 15.4262 14.2838 15.4262 14.2838C15.4262 14.2838 16.7222 19.8979 18.8898 26.5125C16.0323 25.0985 14.0071 24.1316 14.0071 24.1316C14.0071 24.1316 17.8647 35.6113 22.9932 45.0008C24.8842 48.7286 29.3005 52.5514 35.2865 54.3735C35.2865 54.3735 36.2977 56.6929 37.172 58.3584C38.2502 60.4179 40.2558 62.6926 40.2558 62.6926H40.2559ZM125.309 29.3433C122.72 36.2708 119.281 43.3939 117.563 46.3393C114.667 51.2967 108.899 54.2533 105.516 55.3431C105.516 55.3431 103.873 59.3085 102.181 61.491H109.086V70.8832L115.644 74.0242L109.077 77.3357L109.069 85.2133L102.703 89.1032C102.703 89.1032 97.6304 88.4745 95.1611 88.2174L74.9794 99.876C70.9319 118.152 69.9738 123.473 69.9738 123.473C69.9738 123.473 69.0241 118.454 64.9682 99.876L44.7838 88.2174C42.3145 88.4745 37.2419 89.1032 37.2419 89.1032L30.8759 85.2133L30.8647 77.3357L24.3033 74.0243L30.8592 70.8832V61.491H37.7642C36.1022 59.4119 34.429 55.3431 34.429 55.3431C32.3983 54.678 30.4793 53.7559 28.753 52.652C26.0267 50.9167 23.7921 48.7258 22.3815 46.3393C19.6328 41.4909 16.401 34.1917 14.6356 29.3433C13.468 26.3867 12.0155 21.8708 12.0155 21.8708C12.0155 21.8708 15.7725 23.6677 16.9261 24.2322C15.1273 18.8416 13.6049 11.6654 13.6049 11.6654V11.6626C13.6049 11.6626 39.4514 28.6614 57.5799 43.2011L57.8676 43.0251C57.8593 42.7233 57.8509 42.4187 57.8509 42.1029C57.8453 41.9212 57.8565 41.5635 58.0073 41.122C58.2168 40.524 58.6861 39.7751 59.7391 39.1324C58.4067 38.1543 56.0073 36.4971 55.7978 36.2652C54.0436 34.7422 53.7475 33.0264 53.8816 32.1825L54.1805 30.2487L64.0157 37.5758C69.3649 36.0444 73.1443 36.8018 75.9291 37.5758L85.7644 30.2487L86.0633 32.1825C86.1974 33.0264 85.9013 34.7422 84.1499 36.2652C83.946 36.4832 81.5353 38.1543 80.2085 39.1324C81.256 39.7751 81.7281 40.524 81.9376 41.122C82.0884 41.5635 82.1024 41.9212 82.0912 42.1029C82.0912 42.4187 82.0884 42.7233 82.0772 43.0251L82.3649 43.2011C100.926 28.3289 126.34 11.6626 126.34 11.6626V11.6654C126.34 11.6654 125.075 17.5729 123.019 24.2322C123.996 23.7571 127.929 21.8708 127.929 21.8708C126.815 25.459 125.309 29.3433 125.309 29.3433" fill="#A0A0A4"/>
</g>
</g>
</g>
</svg>
